<svg width="83" height="76" viewBox="0 0 83 76" fill="none" xmlns="http://www.w3.org/2000/svg">
<g clip-path="url(#clip0_510_831)">
<path d="M40.0447 27.058C40.0447 27.0092 40.0284 26.9767 40.0284 26.9279L40.0122 26.8953C39.9959 26.8628 39.9959 26.8302 39.9797 26.7977L39.9634 26.7651C39.9471 26.7326 39.9309 26.6838 39.9146 26.6513C39.8983 26.6187 39.8658 26.5862 39.8496 26.5374L39.8333 26.5048C39.817 26.4723 39.7845 26.456 39.7683 26.4235L39.752 26.4072C39.7195 26.3747 39.687 26.3584 39.6544 26.3258C39.6219 26.2933 39.5894 26.277 39.5406 26.2445H39.5244L20.8089 15.4571C20.4675 15.2618 20.061 15.2618 19.7195 15.4571L1.03656 26.2608C1.00404 26.277 0.95526 26.3096 0.922739 26.3421C0.890219 26.3747 0.857699 26.3909 0.825178 26.4235L0.808918 26.4397C0.792658 26.456 0.760138 26.4885 0.743878 26.5211L0.727617 26.5536C0.695097 26.5862 0.678837 26.6187 0.662577 26.6675C0.646317 26.7163 0.630056 26.7489 0.613796 26.7814L0.597536 26.814C0.581276 26.8465 0.581276 26.879 0.565016 26.9116L0.548756 26.9441C0.532496 26.9767 0.532496 27.0255 0.532496 27.058V27.0743C0.532496 27.1231 0.516235 27.1556 0.516235 27.2045V48.8281C0.516235 49.2186 0.727618 49.5765 1.06908 49.7718L19.752 60.5755H19.7683C19.8008 60.5917 19.8496 60.6243 19.8821 60.6406H19.8984C19.9309 60.6568 19.9797 60.6731 20.0122 60.6731L20.0447 60.6894C20.0772 60.6894 20.1097 60.7056 20.1423 60.7056H20.1748C20.2236 60.7056 20.2561 60.7056 20.3049 60.7219C20.3536 60.7219 20.3862 60.7219 20.4349 60.7056H20.4675C20.5 60.7056 20.5325 60.6894 20.565 60.6894L20.5975 60.6731C20.6301 60.6568 20.6788 60.6568 20.7114 60.6406H20.7276C20.7601 60.6243 20.8089 60.608 20.8414 60.5755H20.8577L39.5406 49.7718C39.8821 49.5765 40.0935 49.2186 40.0935 48.8281V27.1882C40.0447 27.1394 40.0447 27.1068 40.0447 27.058ZM20.2723 17.6536L36.7764 27.1882L32.1097 29.8728L15.6057 20.3545L20.2723 17.6536ZM30.8252 37.8454L28.565 39.1145V34.4611L30.8252 33.1595V37.8454ZM20.2723 36.739L3.75201 27.2045L9.03656 24.1456L25.5569 33.6802L20.2723 36.739ZM13.4268 21.6074L29.9309 31.1582L27.7357 32.4273L11.2317 22.8927L13.4268 21.6074ZM2.67884 29.0918L19.1829 38.6264V57.6956L2.67884 48.161V29.0918ZM21.3618 57.7118V38.6264L26.3862 35.7303V40.9694C26.3862 41.5714 26.874 42.0595 27.4756 42.0595C27.6544 42.0595 27.8496 42.0107 28.0122 41.9131L32.4349 39.4237H32.4512C32.7927 39.2284 33.004 38.8705 33.004 38.48V31.9067L37.8658 29.0918V48.161L21.3618 57.7118ZM64.939 16.2706H79.0203C79.6219 16.2706 80.1097 15.7825 80.1097 15.1805V5.0927L82.0284 3.53072C82.2723 3.35174 82.4349 3.09142 82.4675 2.78227C82.5 2.4894 82.4187 2.18026 82.2398 1.95247C82.0447 1.72468 81.7683 1.57825 81.4756 1.54571C81.1829 1.52944 80.874 1.62706 80.6626 1.82231L80.1097 2.26161V1.09013C80.1097 0.488118 79.6219 0 79.0203 0H64.939C64.3374 0 63.8496 0.488118 63.8496 1.09013V15.1805C63.8496 15.7825 64.3374 16.2706 64.939 16.2706ZM66.0447 2.18026H77.9471V4.05138L72.2886 8.62342L69.5406 6.03639C69.1016 5.67844 68.4512 5.72725 68.061 6.13402C67.6707 6.55705 67.6707 7.19161 68.0447 7.61464L71.4919 10.8525C71.8821 11.2267 72.5 11.243 72.9227 10.9013L77.9309 6.83365V14.0578H66.0284L66.0447 2.18026ZM54.2398 9.22543V36.9017H59.687C60.2886 36.9017 60.7764 37.3899 60.7764 37.9919C60.7764 38.5939 60.2886 39.082 59.687 39.082H54.2398V66.7583H59.687C60.2561 66.7908 60.7114 67.279 60.7114 67.8484C60.7114 68.4179 60.2561 68.906 59.687 68.9386H53.1504C52.5488 68.9386 52.061 68.4504 52.061 67.8484V39.0983H45.3455C44.7439 39.0983 44.2561 38.6101 44.2561 38.0081C44.2561 37.4061 44.7439 36.918 45.3455 36.918H52.061V8.15157C52.061 7.54956 52.5488 7.06144 53.1504 7.06144H59.687C60.2561 7.09398 60.7114 7.5821 60.7114 8.15157C60.7114 8.72104 60.2561 9.20916 59.687 9.2417L54.2398 9.22543ZM80.6626 31.6951L80.1097 32.1344V30.9467C80.1097 30.3447 79.6219 29.8566 79.0203 29.8566H64.939C64.3374 29.8566 63.8496 30.3447 63.8496 30.9467V45.037C63.8496 45.639 64.3374 46.1272 64.939 46.1272H79.0203C79.6219 46.1272 80.1097 45.639 80.1097 45.037V34.9493L82.0284 33.3873C82.2723 33.2083 82.4349 32.948 82.4837 32.6388C82.5162 32.346 82.4349 32.0368 82.2561 31.809C82.061 31.5812 81.7845 31.4348 81.4919 31.4023C81.1829 31.386 80.8902 31.4999 80.6626 31.6951ZM77.9309 43.9469H66.0284V32.0368H77.9309V33.9079L72.2886 38.48L69.5406 35.893C69.1016 35.5187 68.4349 35.5513 68.0447 35.9743C67.6382 36.3973 67.6544 37.0644 68.0447 37.4875L71.4919 40.7253C71.8821 41.0996 72.5 41.1158 72.9227 40.7741L77.9309 36.7065V43.9469ZM80.6626 61.568L80.1097 62.0073V60.8195C80.1097 60.2175 79.6219 59.7294 79.0203 59.7294H64.939C64.3374 59.7294 63.8496 60.2175 63.8496 60.8195V74.9099C63.8496 75.5119 64.3374 76 64.939 76H79.0203C79.6219 76 80.1097 75.5119 80.1097 74.9099V64.8221L82.0284 63.2601C82.4512 62.8696 82.5 62.2188 82.1423 61.7632C81.7845 61.3076 81.1341 61.2263 80.6626 61.568ZM77.9309 73.8197H66.0284V61.9097H77.9309V63.7808L72.2886 68.3528L69.5406 65.7658C69.3292 65.538 69.0528 65.4078 68.7439 65.4078C68.4349 65.4078 68.1423 65.538 67.9309 65.7495C67.7195 65.9773 67.6219 66.2702 67.6382 66.5793C67.6544 66.8885 67.8008 67.1651 68.0447 67.3603L71.4919 70.5982C71.8821 70.9724 72.5 70.9887 72.9227 70.647L77.9309 66.5793V73.8197Z" fill="#93BF47"/>
</g>
<defs>
<clipPath id="clip0_510_831">
<rect width="82" height="76" fill="white" transform="translate(0.5)"/>
</clipPath>
</defs>
</svg>
