<svg width="52" height="62" viewBox="0 0 52 62" fill="none" xmlns="http://www.w3.org/2000/svg">
<g clip-path="url(#clip0_123_204)">
<path d="M50.741 52.0041V49.8531C51.3705 49.7265 51.8741 48.0816 52.0001 47.3225L49.9855 43.4C49.356 43.1469 47.8451 42.8939 47.3415 43.4L45.7047 42.2612C45.9565 41.6286 44.9492 40.2367 44.4456 39.7306H40.2906C39.787 40.2367 38.7797 41.502 39.0315 42.2612L37.2688 43.2735C36.8911 42.7674 35.3802 43.0204 34.6248 43.2735L32.6102 47.1959C32.7361 47.9551 33.2398 49.6 33.8693 49.7265V51.8776C33.2398 52.0041 32.7361 53.649 32.6102 54.4082L34.6248 58.3306C35.2543 58.5837 36.7652 58.8367 37.2688 58.3306L38.9056 59.4694C38.6538 60.102 39.6611 61.4939 40.1647 62H44.3197C44.8233 61.4939 45.8306 60.2286 45.5787 59.4694L47.3415 58.3306C47.7192 58.8367 49.2301 58.5837 49.9855 58.3306L52.0001 54.4082C51.8741 53.7755 51.3705 52.1306 50.741 52.0041ZM44.5715 52.3837C44.1938 53.0163 43.6901 53.5225 43.0606 53.649C42.431 53.902 41.6756 53.7755 41.0461 53.3959C40.4165 53.0163 40.0388 52.3837 39.9129 51.6245C39.787 50.8653 39.787 50.1061 40.1647 49.4735C40.5424 48.8408 41.0461 48.3347 41.6756 48.2082C42.3051 47.9551 43.0606 48.0816 43.6901 48.4612C44.3197 48.8408 44.6974 49.4735 44.8233 50.2327C44.9492 50.8653 44.8233 51.751 44.5715 52.3837ZM21.908 29.3551C25.4335 29.3551 28.833 27.8367 31.2252 25.0531C33.7434 22.2694 35.1284 18.6 35.1284 14.6776C35.1284 10.7551 33.7434 7.08572 31.2252 4.30204C28.7071 1.51837 25.3076 0 21.908 0C18.5085 0 15.109 1.51837 12.5909 4.30204C10.0727 7.08572 8.68771 10.7551 8.68771 14.6776C8.68771 18.6 10.0727 22.2694 12.5909 25.0531C15.109 27.8367 18.5085 29.3551 21.908 29.3551ZM21.908 3.54286C24.5521 3.54286 27.0703 4.68163 28.9589 6.83265C30.8475 8.85714 31.8548 11.7673 31.8548 14.6776C31.8548 17.5878 30.8475 20.498 28.9589 22.5224C27.0703 24.5469 24.5521 25.8122 21.908 25.8122C19.264 25.8122 16.7458 24.6735 14.8572 22.5224C12.9686 20.498 11.9613 17.5878 11.9613 14.6776C11.9613 11.7673 12.9686 8.85714 14.8572 6.83265C16.7458 4.80816 19.264 3.54286 21.908 3.54286ZM32.7361 38.5918C29.4625 36.5673 25.6853 35.6816 21.908 35.8082C16.1163 35.6816 11.4577 37.4531 8.30998 40.8694C3.14775 46.5633 3.14775 55.1674 3.14775 55.2939C3.14775 56.3061 2.39231 57.0653 1.51095 57.0653C0.629594 57.0653 -0.125854 56.3061 -0.125854 55.2939C-0.125854 54.9143 -0.125855 45.0449 5.91773 38.3388C9.82088 34.1633 15.109 32.0122 21.7821 32.1388C26.063 31.8857 30.4698 33.0245 34.247 35.4286C34.6248 35.6816 34.8766 36.0612 35.0025 36.5673C35.1284 37.0735 35.0025 37.5796 34.8766 37.9592C34.6248 38.3388 34.247 38.7184 33.8693 38.8449C33.6175 38.8449 33.1139 38.8449 32.7361 38.5918Z" fill="#17B397"/>
</g>
<defs>
<clipPath id="clip0_123_204">
<rect width="52" height="62" fill="white"/>
</clipPath>
</defs>
</svg>
