<svg width="58" height="57" viewBox="0 0 58 57" fill="none" xmlns="http://www.w3.org/2000/svg">
<g clip-path="url(#clip0_123_202)">
<path d="M21.2 56.7024C21.7 56.7024 22.2 56.3023 22.2 55.7024C22.2 55.2024 21.8 54.7024 21.2 54.7024H5.1C4.6 54.7024 4.1 55.1024 4.1 55.7024C4.1 56.2024 4.5 56.7024 5.1 56.7024H21.2ZM5.8 30.2023C5.7 29.7023 6 29.2023 6.6 29.1023C7.1 29.0023 7.6 29.3023 7.7 29.9023C7.7 30.2023 7.9 30.4023 8.1 30.5023C8.3 30.7023 8.5 30.7023 8.8 30.7023C9.1 30.7023 9.3 30.6023 9.5 30.4023C9.7 30.2023 9.8 30.0023 9.8 29.8023C9.8 29.6023 9.8 29.3023 9.6 29.1023C9.4 28.8023 9 28.6023 8.4 28.4023H8.3C7.5 28.1023 6.8 27.7023 6.4 27.2023C5.9 26.6023 5.7 25.8023 5.8 25.1023C5.9 24.4023 6.2 23.8023 6.7 23.4023L6.8 23.3023C7.1 23.1023 7.4 22.9023 7.8 22.8023C7.8 22.3023 8.3 21.9023 8.8 21.9023C9.3 21.9023 9.8 22.3023 9.8 22.9023C10 23.0023 10.3 23.1023 10.5 23.3023C11 23.7023 11.4 24.3023 11.5 25.0023C11.6 25.5023 11.3 26.0023 10.7 26.1023C10.2 26.2023 9.7 25.9023 9.6 25.3023C9.6 25.1023 9.4 24.9023 9.3 24.8023C9.1 24.7023 8.9 24.6023 8.7 24.6023C8.5 24.6023 8.3 24.7023 8.2 24.8023C8 24.9023 7.9 25.1023 7.9 25.3023C7.9 25.5023 7.9 25.7023 8.1 25.9023C8.3 26.1023 8.6 26.3023 9.1 26.5023H9.2C10.1 26.8023 10.8 27.3023 11.2 27.8023C11.7 28.5023 11.9 29.2023 11.8 30.0023C11.7 30.7023 11.3 31.3023 10.8 31.8023C10.5 32.0023 10.2 32.2024 9.8 32.4024C9.8 32.9024 9.4 33.3023 8.8 33.3023C8.3 33.3023 7.9 32.9024 7.8 32.4024C7.5 32.3024 7.1 32.1023 6.9 31.9023C6.3 31.6023 5.9 30.9023 5.8 30.2023ZM42.8 26.9023C43.1 26.5023 43.7 26.3023 44.1 26.6023C44.5 26.9023 44.7 27.5023 44.4 27.9023L33.7 44.6023C33.4 45.0023 32.8 45.2024 32.4 44.9024C32 44.6024 31.8 44.0023 32.1 43.6023L42.8 26.9023ZM34.4 26.5023C35.5 26.5023 36.5 26.9023 37.2 27.7023C37.9 28.4023 38.4 29.4023 38.4 30.5023C38.4 31.6023 38 32.6023 37.2 33.3023C36.5 34.0023 35.5 34.5023 34.4 34.5023C33.3 34.5023 32.3 34.1023 31.6 33.3023L31.5 33.2024C30.8 32.5023 30.4 31.5023 30.4 30.5023C30.4 29.4023 30.8 28.4023 31.6 27.7023C32.3 26.9023 33.3 26.5023 34.4 26.5023ZM35.8 29.0023C35.4 28.6023 34.9 28.4023 34.4 28.4023C33.8 28.4023 33.3 28.6023 33 29.0023C32.6 29.4023 32.4 29.9023 32.4 30.4023C32.4 30.9023 32.6 31.4023 33 31.8023C33.4 32.2023 33.9 32.4024 34.4 32.4024C35 32.4024 35.5 32.2023 35.8 31.8023C36.2 31.4023 36.4 30.9023 36.4 30.4023C36.4 29.9023 36.2 29.4023 35.8 29.0023ZM42.1 37.2024C43.2 37.2024 44.2 37.6024 44.9 38.4024C45.6 39.1024 46.1 40.1024 46.1 41.2024C46.1 42.3023 45.7 43.3023 44.9 44.0023C44.2 44.7024 43.2 45.2024 42.1 45.2024C41 45.2024 40 44.8023 39.3 44.0023L39.2 43.9024C38.5 43.2024 38.1 42.2024 38.1 41.2024C38.1 40.1024 38.5 39.1024 39.3 38.4024C40.1 37.7024 41.1 37.2024 42.1 37.2024ZM43.6 39.7024C43.2 39.3023 42.7 39.1023 42.2 39.1023C41.6 39.1023 41.1 39.3023 40.8 39.7024C40.4 40.1024 40.2 40.6023 40.2 41.1023C40.2 41.6023 40.4 42.1023 40.8 42.5023C41.2 42.9024 41.7 43.1023 42.2 43.1023C42.8 43.1023 43.3 42.9024 43.6 42.5023C44 42.1023 44.2 41.6023 44.2 41.1023C44.2 40.6023 44 40.1024 43.6 39.7024ZM42.4 9.00235C43.6 6.40235 44.9 4.40235 46.5 3.10235C46.9 2.80235 46.9 2.10235 46.6 1.80235C46.5 1.70235 46.4 1.60235 46.2 1.50235C43.9 0.602348 41.5 0.102348 39 0.00234848C36.6 -0.0976515 34.1 0.202348 31.8 0.802348C31.3 1.00235 31 1.50235 31.1 2.00235C31.4 3.50235 31.8 4.90235 32.5 6.30235C33 7.20235 33.5 8.10235 34.2 9.00235H32.9C32.1 9.00235 31.5 9.30235 31 9.80235C30.5 10.3023 30.2 11.0023 30.2 11.7023C30.2 12.5023 30.5 13.1023 31 13.6023C31.3 13.9023 31.6 14.1023 32 14.2023C29.4 16.0023 26.6 18.6023 24.1 21.9023C21.6 25.2023 19.5 29.3023 18.3 34.0023C18.2 34.5023 18.5 35.0023 19 35.2024C19.5 35.3023 20 35.0023 20.2 34.5023C21.3 30.1024 23.4 26.2023 25.7 23.1023C28.7 19.1023 32.2 16.2023 35 14.6023C35.1 14.5023 35.2 14.5023 35.3 14.4023H41.7C41.7 14.5023 41.8 14.5023 41.9 14.6023C45.1 16.9023 49.1 21.1023 52 26.3023C54.2 30.3023 55.8 34.9024 55.8 39.5023C55.8 44.7024 54.4 48.5023 51.6 51.0023C48.8 53.5023 44.6 54.8023 38.9 54.8023C36.9 54.8023 34.8 54.7024 32.8 54.5023C30.8 54.3023 28.9 53.9023 27.1 53.3023C26.6 53.1023 26.1 53.4024 25.9 53.9024C25.7 54.4024 26 54.9023 26.5 55.1023C28.4 55.8023 30.5 56.1024 32.6 56.4024C34.7 56.6024 36.8 56.7024 38.9 56.7024C45 56.7024 49.7 55.3023 52.9 52.5023C56.1 49.6023 57.7 45.3023 57.7 39.6023C57.7 34.6023 56 29.7023 53.7 25.5023C51.2 21.0023 47.8 17.1023 44.8 14.5023C45.4 14.4023 45.9 14.1023 46.3 13.7023L46.4 13.6023C46.9 13.1023 47.1 12.5023 47.1 11.7023C47.1 11.0023 46.8 10.3023 46.3 9.80235C45.5 9.30235 44.8 9.00235 44.1 9.00235H42.4ZM36.6 9.00235C35.6 7.80235 34.8 6.70235 34.2 5.40235C33.7 4.40235 33.4 3.50235 33.1 2.50235C35.1 2.00235 37 1.80235 38.9 1.90235C40.6 2.00235 42.4 2.30235 44 2.80235C42.6 4.40235 41.3 6.40235 40.3 9.00235H36.6ZM32.9 10.9023H44.1C44.3 10.9023 44.5 11.0023 44.7 11.1023C44.8 11.2023 44.9 11.4023 44.9 11.7023C44.9 11.9023 44.8 12.1023 44.7 12.2023C44.6 12.3023 44.3 12.4023 44.1 12.4023H32.9C32.7 12.4023 32.5 12.3023 32.3 12.2023C32.2 12.1023 32.1 11.8023 32.1 11.6023C32.1 11.4023 32.2 11.2023 32.3 11.0023C32.4 11.0023 32.6 10.9023 32.9 10.9023ZM8.7 34.5023C6.8 34.5023 5.1 33.7024 3.9 32.5023C2.7 31.3023 1.9 29.6023 1.9 27.7023C1.9 25.8023 2.7 24.1023 3.9 22.9023C5.1 21.7023 6.8 20.9023 8.7 20.9023C10.6 20.9023 12.3 21.7023 13.5 22.9023C14.7 24.1023 15.4 25.8023 15.4 27.7023C15.4 29.6023 14.6 31.3023 13.4 32.5023C12.3 33.7024 10.6 34.5023 8.7 34.5023ZM2.6 33.9024C4.2 35.5023 6.4 36.5023 8.8 36.5023C11.2 36.5023 13.4 35.5023 15 34.0023C16.6 32.4024 17.5 30.2023 17.5 27.8023C17.5 25.4023 16.5 23.3023 15 21.7023L14.9 21.6023C13.3 20.0023 11.1 19.0023 8.7 19.0023C6.3 19.0023 4.1 20.0023 2.6 21.5023C1 23.1023 0 25.3023 0 27.7023C0 30.1023 1 32.3024 2.6 33.9024ZM21.2 39.8023C21.7 39.8023 22.2 39.4023 22.2 38.8023C22.2 38.3023 21.8 37.8023 21.2 37.8023H5.1C4.6 37.8023 4.1 38.2024 4.1 38.8023C4.1 39.3023 4.5 39.8023 5.1 39.8023H21.2ZM22.9 43.2024C23.4 43.2024 23.9 42.8023 23.9 42.2024C23.9 41.7024 23.5 41.2024 22.9 41.2024H6.8C6.3 41.2024 5.8 41.6024 5.8 42.2024C5.8 42.7024 6.2 43.2024 6.8 43.2024H22.9ZM21.2 46.5023C21.7 46.5023 22.2 46.1023 22.2 45.5023C22.2 45.0023 21.8 44.5023 21.2 44.5023H5.1C4.6 44.5023 4.1 44.9024 4.1 45.5023C4.1 46.0023 4.5 46.5023 5.1 46.5023H21.2ZM22.9 49.9024C23.4 49.9024 23.9 49.5023 23.9 48.9024C23.9 48.4024 23.5 47.9024 22.9 47.9024H6.8C6.3 47.9024 5.8 48.3024 5.8 48.9024C5.8 49.4024 6.2 49.9024 6.8 49.9024H22.9ZM22.9 53.3023C23.4 53.3023 23.9 52.9023 23.9 52.3023C23.9 51.8023 23.5 51.3023 22.9 51.3023H6.8C6.3 51.3023 5.8 51.7024 5.8 52.3023C5.8 52.9023 6.2 53.3023 6.8 53.3023H22.9Z" fill="#17B397"/>
</g>
<defs>
<clipPath id="clip0_123_202">
<rect width="57.5" height="56.7" fill="white" transform="translate(0 0.00195312)"/>
</clipPath>
</defs>
</svg>
