<svg width="61" height="61" viewBox="0 0 61 61" fill="none" xmlns="http://www.w3.org/2000/svg">
<g clip-path="url(#clip0_123_206)">
<path d="M26.3 39.1018V35.5018H24.2C24 34.8018 23.8 34.2018 23.4 33.6018L24.8 32.1018L22.2 29.6018L20.8 31.1018C20.2 30.8018 19.6 30.5018 18.9 30.4018V28.3018H15.3V30.4018C14.6 30.6018 14 30.8018 13.4 31.2018L12 29.8018L9.5 32.4018L11 33.8018C10.7 34.4018 10.4 35.0018 10.3 35.7018H8.2V39.3018H10.3C10.5 40.0018 10.7 40.6018 11.1 41.2018L9.7 42.7018L12.3 45.2018L13.7 43.7018C14.3 44.0018 14.9 44.3018 15.6 44.4018V46.5018H19.2V44.4018C19.9 44.2018 20.5 44.0018 21.1 43.6018L22.6 45.0018L25.1 42.4018L23.5 41.0018C23.8 40.4018 24.1 39.8018 24.2 39.1018H26.3ZM17.2 40.4018C15.5 40.4018 14.1 39.1018 14.1 37.4018C14.1 35.7018 15.4 34.3018 17.1 34.3018C18.8 34.3018 20.2 35.6018 20.2 37.3018C20.2 39.0018 18.9 40.4018 17.2 40.4018Z" fill="#17B397"/>
<path d="M41.6 30.4018C40.9 30.6018 40.3 30.8018 39.7 31.2018L38.2 29.8018L35.7 32.4018L37.2 33.8018C36.9 34.4018 36.6 35.0018 36.5 35.7018H34.4V39.3018H36.5C36.7 40.0018 36.9 40.6018 37.3 41.2018L35.9 42.7018L38.5 45.2018L39.9 43.7018C40.5 44.0018 41.1 44.3018 41.8 44.4018V46.5018H45.4V44.4018C46.1 44.2018 46.7 44.0018 47.3 43.6018L48.8 45.0018L51.3 42.4018L49.8 41.0018C50.1 40.4018 50.4 39.8018 50.5 39.1018H52.6V35.5018H50.5C50.3 34.8018 50.1 34.2018 49.7 33.6018L51.1 32.1018L48.5 29.6018L47.1 31.1018C46.5 30.8018 45.9 30.5018 45.2 30.4018V28.3018H41.6V30.4018ZM46.5 37.3018C46.5 39.0018 45.2 40.4018 43.5 40.4018C41.8 40.4018 40.4 39.1018 40.4 37.4018C40.4 35.7018 41.7 34.3018 43.4 34.3018C45.1 34.3018 46.5 35.7018 46.5 37.3018Z" fill="#17B397"/>
<path d="M35.6 24.8021L38.1 22.2021L36.6 20.8021C36.9 20.2021 37.2 19.6021 37.3 18.9021H39.4V15.3021H37.3C37.1 14.6021 36.9 14.0021 36.5 13.4021L38 12.0021L35.4 9.50215L34 11.0021C33.4 10.7021 32.8 10.4021 32.1 10.3021V8.20215H28.5V10.3021C27.8 10.5021 27.2 10.7021 26.6 11.1021L25.1 9.70215L22.6 12.3021L24.1 13.7021C23.8 14.3021 23.5 14.9021 23.4 15.6021H21.3V19.2021H23.4C23.6 19.9021 23.8 20.5021 24.2 21.1021L22.8 22.6021L25.4 25.1021L26.8 23.6021C27.4 23.9021 28 24.2021 28.7 24.3021V26.4021H32.3V24.3021C33 24.1021 33.6 23.9021 34.2 23.5021L35.6 24.8021ZM30.4 20.2021C28.7 20.2021 27.3 18.9021 27.3 17.2021C27.3 15.5021 28.6 14.1021 30.3 14.1021C32 14.1021 33.4 15.4021 33.4 17.1021C33.4 18.8021 32 20.2021 30.4 20.2021Z" fill="#17B397"/>
<path d="M11.1 6.90234C10.6 7.30234 10 7.80234 9.5 8.30234L11 9.70234C11.5 9.30234 12 8.80234 12.5 8.40234L11.1 6.90234Z" fill="#17B397"/>
<path d="M11 51.1021C10.5 50.7021 10.1 50.2021 9.60001 49.7021L8.10001 51.1021C8.60001 51.6021 9.10001 52.1021 9.60001 52.6021L11 51.1021Z" fill="#17B397"/>
<path d="M8.40001 48.2021C8.00001 47.7021 7.60001 47.2021 7.20001 46.7021L5.60001 47.9021C6.00001 48.4021 6.40001 49.0021 6.80001 49.5021L8.40001 48.2021Z" fill="#17B397"/>
<path d="M6.2 45.1023C5.9 44.6023 5.5 44.0023 5.3 43.4023L3.5 44.3023C3.8 44.9023 4.2 45.5023 4.5 46.1023L6.2 45.1023Z" fill="#17B397"/>
<path d="M4.4 41.7023C4.1 41.1023 3.9 40.5023 3.7 39.9023L1.8 40.6023C2 41.2023 2.3 41.9023 2.6 42.5023L4.4 41.7023Z" fill="#17B397"/>
<path d="M51 8.10156L49.6 9.60156C50.1 10.0016 50.5 10.5016 51 11.0016L52.5 9.60156C52 9.10156 51.5 8.60156 51 8.10156Z" fill="#17B397"/>
<path d="M49.4 6.70195C48.9 6.30195 48.3 5.90195 47.7 5.50195L46.5 7.20195C47 7.60195 47.5 8.00195 48 8.40195L49.4 6.70195Z" fill="#17B397"/>
<path d="M3.10001 38.0016C2.90001 37.4016 2.80001 36.8016 2.60001 36.1016L0.600006 36.5016C0.700006 37.2016 0.900006 37.8016 1.10001 38.5016L3.10001 38.0016Z" fill="#17B397"/>
<path d="M15.6 6.20195L14.5 4.50195C13.9 4.90195 13.3 5.20195 12.8 5.60195L14 7.20195C14.5 6.90195 15 6.50195 15.6 6.20195Z" fill="#17B397"/>
<path d="M18.2 2.50195C17.6 2.80195 16.9 3.10195 16.3 3.40195L17.2 5.20195C17.8 4.90195 18.4 4.60195 18.9 4.40195L18.2 2.50195Z" fill="#17B397"/>
<path d="M44.2 3.30176L43.3 5.10176C43.9 5.40176 44.4 5.70176 45 6.00176L46 4.30176C45.4 4.00176 44.8 3.70176 44.2 3.30176Z" fill="#17B397"/>
<path d="M0.300006 34.5018L2.30001 34.2018C2.20001 33.6018 2.10001 32.9018 2.10001 32.3018L0.100006 32.4018C0.100006 33.2018 0.200006 33.9018 0.300006 34.5018Z" fill="#17B397"/>
<path d="M59.6 38.502L57.6 38.002C57.4 38.602 57.2 39.202 57 39.802L58.9 40.502C59.2 39.902 59.4 39.202 59.6 38.502Z" fill="#17B397"/>
<path d="M16.4 57.3016L17.3 55.5016C16.7 55.2016 16.2 54.9016 15.6 54.6016L14.5 56.3016C15.2 56.7016 15.8 57.0016 16.4 57.3016Z" fill="#17B397"/>
<path d="M18.3 58.2023C18.9 58.5023 19.6 58.7023 20.2 59.0023L20.9 57.1023C20.3 56.9023 19.7 56.6023 19.1 56.4023L18.3 58.2023Z" fill="#17B397"/>
<path d="M24.2 60.1016L24.6 58.1016C24 58.0016 23.3 57.8016 22.7 57.6016L22.2 59.5016C22.9 59.8016 23.5 59.9016 24.2 60.1016Z" fill="#17B397"/>
<path d="M30.4 60.7016C31.1 60.7016 31.8 60.7016 32.5 60.6016L32.4 58.6016C31.8 58.6016 31.1 58.7016 30.5 58.7016L30.4 60.7016Z" fill="#17B397"/>
<path d="M11.2 53.9018C11.7 54.3018 12.3 54.8018 12.9 55.2018L14.1 53.5018C13.6 53.1018 13.1 52.7018 12.6 52.3018L11.2 53.9018Z" fill="#17B397"/>
<path d="M0.300003 26.3018L2.3 26.6018C2.4 26.0018 2.5 25.3018 2.6 24.7018L0.600003 24.3018C0.500003 24.9018 0.400003 25.6018 0.300003 26.3018Z" fill="#17B397"/>
<path d="M2.5 18.302L4.4 19.102C4.7 18.502 4.9 17.902 5.2 17.402L3.4 16.502C3 17.102 2.7 17.702 2.5 18.302Z" fill="#17B397"/>
<path d="M1.10001 22.2021L3.10001 22.7021C3.30001 22.1021 3.50001 21.5021 3.70001 20.9021L1.80001 20.2021C1.50001 20.9021 1.30001 21.6021 1.10001 22.2021Z" fill="#17B397"/>
<path d="M7.19999 14.1023L5.49999 12.9023C5.09999 13.5023 4.69999 14.0023 4.39999 14.6023L6.09999 15.6023C6.39999 15.1023 6.79999 14.6023 7.19999 14.1023Z" fill="#17B397"/>
<path d="M9.6 11.1021L8.1 9.70215C7.6 10.2021 7.2 10.7021 6.7 11.3021L8.3 12.6021C8.7 12.0021 9.2 11.5021 9.6 11.1021Z" fill="#17B397"/>
<path d="M20.8 3.70215C21.4 3.50215 22 3.30215 22.6 3.10215L22.1 1.20215C21.4 1.40215 20.8 1.60215 20.1 1.80215L20.8 3.70215Z" fill="#17B397"/>
<path d="M28.3 2.10195C29 2.00195 29.6 2.00195 30.2 2.00195V0.00195312C29.5 0.00195312 28.8 0.00195312 28.1 0.101953L28.3 2.10195Z" fill="#17B397"/>
<path d="M39.7 3.60156C40.3 3.80156 40.9 4.00156 41.5 4.30156L42.3 2.40156C41.7 2.10156 41 1.90156 40.4 1.60156L39.7 3.60156Z" fill="#17B397"/>
<path d="M36 2.60195C36.6 2.70195 37.3 2.90195 37.9 3.00195L38.4 1.00195C37.7 0.801953 37.1 0.701953 36.4 0.501953L36 2.60195Z" fill="#17B397"/>
<path d="M34.1 2.30156L34.4 0.301563C33.7 0.201563 33 0.101562 32.3 0.101562L32.2 2.10156C32.8 2.10156 33.5 2.20156 34.1 2.30156Z" fill="#17B397"/>
<path d="M53.4 13.9016L55 12.7016C54.6 12.1016 54.2 11.6016 53.7 11.1016L52.1 12.4016C52.7 12.9016 53.1 13.4016 53.4 13.9016Z" fill="#17B397"/>
<path d="M2.1 28.5023L0.1 28.4023C0 29.0023 0 29.7023 0 30.3023V30.4023L2 30.3023C2 29.7023 2 29.1023 2.1 28.5023Z" fill="#17B397"/>
<path d="M38 57.602L38.5 59.502C39.2 59.302 39.8 59.102 40.5 58.902L39.9 57.002C39.2 57.202 38.6 57.402 38 57.602Z" fill="#17B397"/>
<path d="M28.4 58.6023C27.8 58.6023 27.1 58.5023 26.5 58.4023L26.2 60.4023C26.9 60.5023 27.6 60.6023 28.3 60.6023L28.4 58.6023Z" fill="#17B397"/>
<path d="M36.5 60.1016L36.1 58.1016C35.5 58.2016 34.8 58.3016 34.2 58.4016L34.5 60.4016C35.2 60.3016 35.9 60.2016 36.5 60.1016Z" fill="#17B397"/>
<path d="M55.5 43.4016L57.3 44.3016C57.6 43.7016 57.9 43.1016 58.2 42.4016L56.3 41.6016C56.1 42.2016 55.8 42.8016 55.5 43.4016Z" fill="#17B397"/>
<path d="M60.7 30.2021H58.7V30.3021C58.7 30.9021 58.7 31.6021 58.6 32.2021L60.6 32.3021C60.6 31.6021 60.7 30.9021 60.7 30.2021Z" fill="#17B397"/>
<path d="M57.6 22.6016C57.8 23.2016 57.9 23.8016 58.1 24.5016L60.1 24.1016C60 23.4016 59.8 22.7016 59.6 22.1016L57.6 22.6016Z" fill="#17B397"/>
<path d="M56.3 19.0021C56.6 19.6021 56.8 20.2021 57 20.8021L58.9 20.1021C58.7 19.5021 58.4 18.8021 58.1 18.2021L56.3 19.0021Z" fill="#17B397"/>
<path d="M60.4 26.1016L58.4 26.4016C58.5 27.0016 58.6 27.7016 58.6 28.3016L60.6 28.2016C60.6 27.5016 60.5 26.8016 60.4 26.1016Z" fill="#17B397"/>
<path d="M54.5 15.502C54.8 16.002 55.2 16.602 55.5 17.202L57.3 16.302C57 15.702 56.6 15.102 56.3 14.502L54.5 15.502Z" fill="#17B397"/>
<path d="M60.4 34.5021L58.4 34.2021C58.3 34.8021 58.2 35.5021 58.1 36.1021L60.1 36.5021C60.2 35.8021 60.3 35.2021 60.4 34.5021Z" fill="#17B397"/>
<path d="M48.2 52.302L49.5 53.902C50 53.502 50.6 53.002 51.1 52.502L49.7 51.002C49.2 51.502 48.7 51.902 48.2 52.302Z" fill="#17B397"/>
<path d="M55.1 47.802C55.5 47.202 55.9 46.702 56.2 46.102L54.5 45.002C54.2 45.602 53.8 46.102 53.4 46.602L55.1 47.802Z" fill="#17B397"/>
<path d="M45.1 54.5023L46.2 56.2023C46.8 55.8023 47.4 55.5023 47.9 55.1023L46.7 53.4023C46.2 53.9023 45.6 54.2023 45.1 54.5023Z" fill="#17B397"/>
<path d="M42.5 58.202C43.1 57.902 43.8 57.602 44.4 57.302L43.5 55.502C42.9 55.802 42.3 56.102 41.8 56.302L42.5 58.202Z" fill="#17B397"/>
<path d="M51 49.7021L52.5 51.1021C53 50.6021 53.4 50.1021 53.9 49.5021L52.3 48.2021C51.9 48.7021 51.5 49.2021 51 49.7021Z" fill="#17B397"/>
<path d="M24.5 2.60176C25.1 2.50176 25.8 2.40176 26.4 2.30176L26.1 0.301758C25.4 0.401758 24.7 0.501758 24.1 0.701758L24.5 2.60176Z" fill="#17B397"/>
</g>
<defs>
<clipPath id="clip0_123_206">
<rect width="60.7" height="60.7" fill="white" transform="translate(0 0.00195312)"/>
</clipPath>
</defs>
</svg>
