<svg width="63" height="64" viewBox="0 0 63 64" fill="none" xmlns="http://www.w3.org/2000/svg">
<g clip-path="url(#clip0_123_256)">
<path d="M17.432 3.51074H19.4199V5.49379H17.432V3.51074Z" fill="#17B397"/>
<path d="M13.4563 3.51074H15.4442V5.49379H13.4563V3.51074Z" fill="#17B397"/>
<path d="M21.5607 3.51074H23.5485V5.49379H21.5607V3.51074Z" fill="#17B397"/>
<path d="M30.5825 27.6117C31.0413 27.4591 31.5 27.154 31.5 26.6964V22.4252C31.5 21.9676 31.0413 21.51 30.5825 21.51L27.983 21.2049C27.8301 20.8998 27.6772 20.4422 27.5243 20.2896L29.0534 18.3066C29.3592 17.849 29.3592 17.3913 28.9005 17.0863L25.8422 14.0354C25.3835 13.5778 24.9248 13.5778 24.6189 13.8829L22.6311 15.4083C22.3252 15.2557 22.0194 15.1032 21.7136 14.9507L21.5607 12.51C21.4078 12.0524 21.1019 11.5947 20.6432 11.5947H16.3616C15.9029 11.5947 15.4442 12.0524 15.4442 12.51L14.9854 14.9507C14.6796 15.1032 14.3738 15.2557 14.068 15.4083L12.0801 13.7303C11.6214 13.4252 11.0097 13.4252 10.7039 13.8829L7.64563 16.9337C7.18689 17.3913 7.18689 17.849 7.49271 18.154L9.02184 20.1371C8.86893 20.4422 8.71601 20.7473 8.5631 21.0524L5.96359 21.3574C5.50485 21.51 5.04611 21.8151 5.04611 22.2727V26.5439C5.04611 27.0015 5.50485 27.4591 5.96359 27.4591L8.5631 27.7642C8.86893 28.3744 9.02184 28.6795 9.17475 28.9846L7.64563 30.9676C7.3398 31.4252 7.3398 32.0354 7.64563 32.3405L10.7039 35.3913C11.1626 35.849 11.6214 35.849 11.9272 35.5439L13.915 34.0185C14.2209 34.171 14.5267 34.3235 14.8325 34.4761L15.1383 37.0693C15.2913 37.5269 15.5971 37.9846 16.0558 37.9846H20.3374C20.7961 37.9846 21.2548 37.5269 21.2548 37.0693L21.5607 34.4761C21.8665 34.3235 22.3252 34.171 22.4781 34.0185L24.466 35.5439C24.9248 35.849 25.3835 35.849 25.6893 35.3913L28.7476 32.3405C29.2063 31.8829 29.2063 31.4252 28.9005 31.1201L27.3714 29.1371C27.5243 28.832 27.6772 28.5269 27.8301 28.2218L30.5825 27.6117ZM27.2184 26.0863C26.7597 26.0863 26.4539 26.3913 26.301 26.849C26.1481 27.4591 25.8422 28.0693 25.5364 28.6795C25.3835 29.1371 25.3835 29.4422 25.6893 29.7473L27.2184 31.5778L25.3835 33.4083L23.5485 32.0354C23.2427 31.7303 22.784 31.7303 22.4781 31.8829C21.8665 32.1879 21.2548 32.493 20.6432 32.6456C20.1845 32.7981 19.8786 33.1032 19.8786 33.5608L19.5728 35.849H16.9733L16.8204 33.2557C16.8204 32.7981 16.5146 32.493 16.0558 32.3405C15.4442 32.1879 14.8325 31.8829 14.2209 31.5778C13.7621 31.4252 13.4563 31.4252 13.1505 31.7303L11.3155 33.2557L9.48058 31.4252L11.0097 29.5947C11.3155 29.2896 11.3155 28.832 11.1626 28.5269C11.0097 28.0693 10.7039 27.4591 10.7039 26.849C10.551 26.3913 10.2451 26.0863 9.7864 26.0863L7.49271 25.9337V23.3405L9.7864 23.0354C10.2451 23.0354 10.551 22.7303 10.7039 22.2727C10.8568 21.6625 11.1626 21.0524 11.4684 20.4422C11.6214 19.9846 11.6214 19.6795 11.3155 19.3744L9.7864 17.5439L11.6214 15.7134L13.4563 17.2388C13.7621 17.5439 14.2209 17.5439 14.5267 17.3913C15.1383 17.0863 15.75 16.7812 16.3616 16.6286C16.8204 16.4761 17.1262 16.171 17.1262 15.7134L17.432 13.4252H20.0315L20.3374 15.7134C20.3374 16.171 20.6432 16.4761 21.1019 16.6286C21.7136 16.7812 22.3252 17.0863 22.9369 17.3913C23.3956 17.5439 23.7015 17.5439 24.0073 17.2388L25.8422 15.7134L27.6772 17.5439L26.1481 19.3744C25.8422 19.6795 25.8422 20.1371 25.9951 20.4422C26.301 21.0524 26.6068 21.6625 26.7597 22.2727C26.9126 22.7303 27.2184 23.0354 27.6772 23.0354L29.9709 23.3405V25.9337L27.2184 26.0863Z" fill="#17B397"/>
<path d="M18.5024 18.002C14.9854 18.002 11.9272 20.9003 11.9272 24.5613C11.9272 28.2223 14.8325 31.1206 18.5024 31.1206C22.1723 31.1206 25.0777 28.2223 25.0777 24.5613C25.0777 20.9003 22.1723 18.002 18.5024 18.002ZM18.5024 29.1375C16.0558 29.1375 13.915 27.002 13.915 24.5613C13.915 22.1206 16.0558 19.985 18.5024 19.985C20.949 19.985 23.0898 22.1206 23.0898 24.5613C22.9369 27.002 20.949 29.1375 18.5024 29.1375Z" fill="#17B397"/>
<path d="M17.432 40.7305H6.42233C5.81068 40.7305 5.50485 41.1881 5.50485 41.6457C5.50485 42.2559 5.96359 42.561 6.42233 42.561H17.432C18.0437 42.561 18.3495 42.1033 18.3495 41.6457C18.5024 41.1881 18.0437 40.7305 17.432 40.7305Z" fill="#17B397"/>
<path d="M17.432 45.7646H6.42233C5.81068 45.7646 5.50485 46.2223 5.50485 46.6799C5.50485 47.1375 5.96359 47.5952 6.42233 47.5952H17.432C18.0437 47.5952 18.3495 47.1375 18.3495 46.6799C18.5024 46.2223 18.0437 45.7646 17.432 45.7646Z" fill="#17B397"/>
<path d="M17.432 50.7988H6.42233C5.81068 50.7988 5.50485 51.2565 5.50485 51.7141C5.50485 52.3243 5.96359 52.6293 6.42233 52.6293H17.432C18.0437 52.6293 18.3495 52.1717 18.3495 51.7141C18.5024 51.2565 18.0437 50.7988 17.432 50.7988Z" fill="#17B397"/>
<path d="M62.3884 32.646L58.8714 29.4426C51.2257 22.7308 35.6286 8.69687 37.0049 10.3748V6.25619C37.0049 5.18839 36.0874 4.27314 35.017 4.27314H29.0534V1.985C29.0534 0.917207 28.2888 0.00195312 27.0655 0.00195312H9.93932C8.71602 0.00195312 7.95146 0.917207 7.95146 1.985V4.1206H1.98786C0.917476 4.1206 0 5.03585 0 6.10365V55.8325C0 56.9003 0.917476 57.8155 1.98786 57.8155H22.3252V61.9342C22.3252 62.5443 22.784 62.8494 23.2427 62.8494H52.1432C52.7549 62.8494 53.0607 62.3918 53.0607 61.9342V50.1884C53.0607 46.3748 49.8495 43.1714 46.0267 43.1714H43.4272C43.1214 43.1714 42.9684 43.324 42.6626 43.4765L37.4636 48.663L32.2646 43.4765C32.1117 43.324 31.8058 43.1714 31.5 43.1714H28.9005C25.0777 43.1714 21.8665 46.3748 21.8665 50.1884V55.985H2.14078V6.25619H8.10437V7.17144C7.95146 8.23924 8.86893 9.1545 9.93932 9.1545H27.2184C28.2888 9.1545 29.2063 8.23924 29.2063 7.17144V6.25619H35.1699V10.2223L31.1942 9.76467C30.4296 9.61212 29.9709 10.3748 30.1238 10.985C30.5825 12.8155 31.5 16.7816 31.6529 17.0867C31.8058 17.5443 31.8058 17.2392 35.3228 20.5952V28.985C32.7233 30.0528 30.7354 32.646 30.7354 35.6969C30.7354 39.663 33.9466 43.0189 38.0752 43.0189C42.2039 43.0189 45.4151 39.8155 45.4151 35.6969C45.4151 31.5782 42.2039 28.3748 38.0752 28.3748H37.3107V22.1206L56.5777 39.5104C57.3422 40.2731 58.7184 40.2731 59.3301 39.3579L62.6942 35.5443C63.1529 35.0867 63.1529 34.6291 63.1529 34.0189C63 33.4087 62.6942 32.9511 62.3884 32.646ZM24.3131 50.1884C24.3131 47.4426 26.6068 45.1545 29.3592 45.1545H31.5L37.1578 50.7986C37.3107 50.9511 37.6165 51.1036 37.9223 51.1036C38.2282 51.1036 38.3811 50.9511 38.6869 50.7986L44.3447 45.1545H46.4854C49.2379 45.1545 51.5316 47.4426 51.5316 50.1884V61.0189H47.25V52.9342C47.25 52.324 46.7913 52.0189 46.3325 52.0189C45.7209 52.0189 45.4151 52.4765 45.4151 52.9342V61.0189H30.8884V52.9342C30.8884 52.324 30.4296 52.0189 29.9709 52.0189C29.5121 52.0189 29.0534 52.4765 29.0534 52.9342V61.0189H24.7718L24.3131 50.1884ZM9.93932 7.17144V1.985H27.2184V7.17144H9.93932ZM42.9684 35.6969C42.9684 38.5952 40.6748 41.0359 37.6165 41.0359C34.5583 41.0359 32.2646 38.7477 32.2646 35.6969C32.2646 32.646 34.5583 30.3579 37.6165 30.3579C40.6748 30.3579 42.9684 32.646 42.9684 35.6969ZM33.6408 16.4765L37.0049 12.663L56.5777 30.2053L53.2136 34.0189L33.6408 16.4765ZM34.8641 12.0528L32.7233 14.3409L32.1117 11.7477L34.8641 12.0528ZM57.6481 37.8325L54.7427 35.2392L58.1068 31.4257L61.0121 34.0189L57.6481 37.8325Z" fill="#17B397"/>
</g>
<defs>
<clipPath id="clip0_123_256">
<rect width="63" height="63" fill="white" transform="translate(0 0.00195312)"/>
</clipPath>
</defs>
</svg>
