<svg width="14" height="15" viewBox="0 0 14 15" fill="none" xmlns="http://www.w3.org/2000/svg">
<g clip-path="url(#clip0_22_692)">
<path d="M13.8104 1.46495C13.6886 1.34309 13.5261 1.27539 13.3636 1.27539C13.2012 1.27539 13.0387 1.34309 12.9168 1.46495L7 7.38177L4.90135 5.28313C4.73888 5.12065 4.5087 5.05295 4.29207 5.12065C4.07543 5.17481 3.89942 5.35083 3.84526 5.56746C3.7911 5.78409 3.84526 6.02781 4.00774 6.17674L6.55319 8.7222C6.67505 8.84406 6.83752 8.91176 7 8.91176C7.16248 8.91176 7.32495 8.84406 7.44681 8.7222L13.8104 2.35856C13.9323 2.23671 14 2.07423 14 1.91175C14 1.74928 13.9323 1.5868 13.8104 1.46495Z" fill="#17B397"/>
<path d="M13.8647 5.60742C13.8241 5.39078 13.6616 5.20123 13.445 5.13353C13.2284 5.06583 12.9982 5.10645 12.8222 5.25539C12.6461 5.40432 12.5785 5.6345 12.6191 5.86467C12.8763 7.15094 12.7003 8.47782 12.1046 9.64223C11.5088 10.8066 10.534 11.7273 9.32893 12.2554C8.12391 12.7834 6.79702 12.8917 5.53783 12.5533C4.27864 12.2148 3.16839 11.4565 2.39663 10.4005C1.61133 9.33082 1.21868 8.04455 1.28638 6.74475C1.34054 5.44494 1.85505 4.19929 2.72158 3.2109C3.58812 2.23604 4.76607 1.58614 6.05234 1.35597C7.33861 1.13933 8.66549 1.36951 9.80282 2.00587C10.0059 2.11419 10.2496 2.11419 10.4392 1.99233C10.6287 1.87047 10.7506 1.66738 10.7506 1.4372C10.7506 1.20703 10.6287 1.00394 10.4256 0.882078C9.08522 0.137398 7.52816 -0.146935 6.01172 0.0696993C4.49528 0.286334 3.08715 1.00394 2.00398 2.10065C0.93435 3.19736 0.243828 4.61902 0.054273 6.149C-0.135282 7.66544 0.18967 9.20896 0.96143 10.5359C1.73319 11.8627 2.92468 12.8917 4.34634 13.474C5.76801 14.0562 7.33861 14.1509 8.82797 13.7447C10.3173 13.3386 11.6171 12.4585 12.5514 11.2399C13.4856 10.0213 13.9866 8.53198 14.0001 6.98846C14.0001 6.54165 13.946 6.06776 13.8647 5.60742Z" fill="#17B397"/>
</g>
<defs>
<clipPath id="clip0_22_692">
<rect width="14" height="14" fill="white" transform="translate(0 0.00195312)"/>
</clipPath>
</defs>
</svg>
