<svg width="98" height="67" viewBox="0 0 98 67" fill="none" xmlns="http://www.w3.org/2000/svg">
<g clip-path="url(#clip0_1_1848)">
<path d="M92.4028 52.574H31.2826C28.1964 52.574 25.6854 50.0718 25.6854 46.9965V5.57751C25.6994 2.50219 28.1964 0 31.2826 0H92.4028C95.489 0 98 2.50219 98 5.57751V46.9965C98 50.0718 95.503 52.56 92.4028 52.574ZM31.2826 2.69789C30.511 2.69789 29.7816 3.00542 29.2345 3.53662C28.6874 4.08179 28.3788 4.80868 28.3788 5.57751V46.9965C28.3788 48.59 29.6693 49.8761 31.2685 49.8761H92.4028C94.002 49.8761 95.2926 48.59 95.2926 46.9965V5.57751C95.2926 3.98394 94.002 2.69789 92.4028 2.69789H31.2826Z" fill="#17B397"/>
<path d="M72.3848 61.5763H51.4549C50.7114 61.5763 50.1082 60.9752 50.1082 60.2343V51.2181C50.1082 50.4772 50.7114 49.8761 51.4549 49.8761H72.3848C73.1283 49.8761 73.7315 50.4772 73.7315 51.2181V60.2343C73.7315 60.9752 73.1283 61.5763 72.3848 61.5763ZM52.8156 58.8784H71.024V52.574H52.8156V58.8784Z" fill="#17B397"/>
<path d="M81.8397 67H41.7054C40.9619 67 40.3447 66.3989 40.3447 65.6441C40.3447 61.8978 43.3888 58.8784 47.1483 58.8644H76.3968C80.1563 58.8644 83.1864 61.8978 83.2004 65.6441C83.2004 66.0075 83.0601 66.343 82.8076 66.5946C82.5411 66.8602 82.1904 67 81.8397 67ZM43.3046 64.3021H80.2545C79.6794 62.6666 78.1363 61.5763 76.3968 61.5763H47.1623C45.4229 61.5763 43.8798 62.6666 43.3046 64.3021Z" fill="#17B397"/>
<path d="M30.2585 67H3.95591C1.76754 67 0 65.2387 0 63.058V9.36571C0 7.18502 1.76754 5.42371 3.95591 5.42371H25.8397C26.5832 5.42371 27.2004 6.02479 27.2004 6.77964C27.2004 7.52051 26.5972 8.13558 25.8397 8.13558H3.95591C3.26854 8.13558 2.70741 8.69473 2.70741 9.37968V63.0859C2.70741 63.7709 3.26854 64.33 3.95591 64.33H30.2585C30.9459 64.33 31.507 63.7709 31.507 63.0859V51.246C31.507 50.5051 32.1102 49.89 32.8677 49.89C33.6112 49.89 34.2285 50.4911 34.2285 51.246V63.0859C34.2144 65.2386 32.4469 67 30.2585 67Z" fill="#17B397"/>
<path d="M22.515 20.8563H11.7134C10.9699 20.8563 10.3527 20.2552 10.3527 19.5003C10.3527 18.7595 10.9559 18.1444 11.7134 18.1444H22.515C23.2585 18.1444 23.8758 18.7455 23.8758 19.5003C23.8617 20.2552 23.2585 20.8563 22.515 20.8563Z" fill="#17B397"/>
<path d="M22.515 27.6359H11.7134C10.9699 27.6359 10.3527 27.0349 10.3527 26.28C10.3527 25.5391 10.9559 24.9241 11.7134 24.9241H22.515C23.2585 24.9241 23.8758 25.5252 23.8758 26.28C23.8617 27.0349 23.2585 27.6359 22.515 27.6359Z" fill="#17B397"/>
<path d="M17.1142 49.946C15.4589 49.946 13.9719 48.9535 13.3267 47.4298C12.6954 45.9061 13.0461 44.1448 14.2104 42.9846C15.3748 41.8243 17.1423 41.4749 18.6713 42.1039C20.2004 42.7329 21.1964 44.2287 21.1964 45.8782C21.1964 48.1148 19.3727 49.932 17.1142 49.946ZM17.1142 44.4663C16.3427 44.4663 15.7255 45.0814 15.7255 45.8502C15.7255 46.619 16.3427 47.2341 17.1142 47.2341C17.8858 47.2341 18.503 46.619 18.503 45.8502C18.489 45.0953 17.8717 44.4663 17.1142 44.4663Z" fill="#17B397"/>
<path d="M25.8397 67H9.6513C8.90782 67 8.29058 66.399 8.29058 65.6441V55.7192C8.29058 54.9783 8.89379 54.3633 9.6513 54.3633H25.8537C26.5972 54.3633 27.2144 54.9644 27.2144 55.7192V65.6441C27.2144 66.0076 27.0741 66.343 26.8216 66.5947C26.5411 66.8603 26.2044 67 25.8397 67ZM11.012 64.3022H24.507V57.0752H11.012V64.3022Z" fill="#17B397"/>
<path d="M75.9198 32.5564C69.0882 32.5564 63.2946 27.566 62.3126 20.8283C61.3307 14.0905 65.483 7.66034 72.0341 5.73127C78.5852 3.80221 85.5711 6.97538 88.4048 13.168C90.3407 17.4035 89.99 22.338 87.4649 26.252C84.9539 30.1801 80.6052 32.5425 75.9198 32.5564ZM75.9198 7.85604C71.024 7.85604 66.7174 11.0711 65.3287 15.754C63.9539 20.4369 65.8337 25.4692 69.9579 28.0972C74.0822 30.7392 79.4549 30.3478 83.1443 27.1467C86.8477 23.9455 87.984 18.7035 85.9499 14.2723C84.1403 10.3722 80.2265 7.87002 75.9198 7.85604Z" fill="#17B397"/>
<path d="M82.3166 17.2917C81.7836 17.2917 81.3066 16.9841 81.0822 16.5088C79.9599 14.0626 77.2665 12.7486 74.6293 13.3497C74.2645 13.4335 73.8998 13.5593 73.5491 13.7131C72.8617 14.0206 72.0621 13.7271 71.7535 13.0421C71.4449 12.3572 71.7395 11.5604 72.4269 11.2528C74.4469 10.3303 76.7615 10.2464 78.8517 11.0152C80.9419 11.798 82.6252 13.3636 83.5511 15.3766C83.7475 15.7959 83.7054 16.2852 83.4669 16.6626C83.2144 17.054 82.7796 17.2917 82.3166 17.2917Z" fill="#17B397"/>
<path d="M87.7034 48.0868C86.2725 48.0868 84.9539 47.2481 84.3647 45.9481L77.505 32.2629C77.2946 31.8296 77.3226 31.3123 77.5892 30.9209C77.8557 30.5156 78.3186 30.2919 78.7956 30.3199C79.2725 30.3478 79.7074 30.6274 79.9319 31.0607L86.8196 44.7878C86.9178 45.0255 87.1142 45.2212 87.3527 45.319C87.5912 45.4169 87.8717 45.4029 88.1102 45.305L88.489 45.1233C88.7134 45.0115 88.8958 44.8298 88.994 44.5921C89.0782 44.3545 89.0782 44.0889 88.9659 43.8652L82.1062 30.1801C81.7695 29.5091 82.0361 28.6983 82.7094 28.3628C83.3828 28.0273 84.1964 28.3069 84.5331 28.9639L91.4208 42.691C91.8417 43.5717 91.8978 44.5921 91.5611 45.5147C91.2244 46.4373 90.523 47.1782 89.6252 47.5836L89.2465 47.7653C88.7415 47.975 88.2224 48.0868 87.7034 48.0868Z" fill="#17B397"/>
<path d="M49.0561 41.4888H27.0321C26.2886 41.4888 25.6713 40.8878 25.6713 40.1329C25.6713 39.392 26.2745 38.777 27.0321 38.777H49.0561C49.7996 38.777 50.4168 39.3781 50.4168 40.1329C50.4168 40.8738 49.8136 41.4888 49.0561 41.4888Z" fill="#17B397"/>
<path d="M65.3006 41.4888H57.5571C56.8136 41.4888 56.1964 40.8878 56.1964 40.1329C56.1964 39.392 56.7996 38.777 57.5571 38.777H65.3006C66.0441 38.777 66.6613 39.3781 66.6613 40.1329C66.6613 40.8738 66.0441 41.4888 65.3006 41.4888Z" fill="#17B397"/>
</g>
<defs>
<clipPath id="clip0_1_1848">
<rect width="98" height="67" fill="white"/>
</clipPath>
</defs>
</svg>
