<svg width="270" height="326" viewBox="0 0 270 326" fill="none" xmlns="http://www.w3.org/2000/svg">
<path d="M233.436 325.823H36.5959C16.5775 325.823 0.381226 306.218 0.381226 282.114V44.5359C0.381226 20.3744 16.6253 0.826172 36.5959 0.826172H233.388C253.406 0.826172 269.603 20.4321 269.603 44.5359V282.056C269.65 306.275 253.406 325.823 233.436 325.823Z" fill="white"/>
<path d="M233.388 325.648H36.6436C16.7208 325.648 0.572266 306.158 0.572266 282.112V44.5914C0.572266 20.5453 16.7208 1.05469 36.6436 1.05469H233.436C253.358 1.05469 269.507 20.5453 269.507 44.5914V282.112C269.459 306.1 253.311 325.648 233.388 325.648Z" fill="white"/>
<path d="M233.388 325.417H36.6437C16.8164 325.417 0.715637 305.984 0.715637 282.054V44.5913C0.715637 20.6605 16.8164 1.22754 36.6437 1.22754H233.436C253.263 1.22754 269.316 20.6028 269.316 44.5336V282.054C269.316 305.984 253.215 325.417 233.388 325.417Z" fill="#FEFEFE"/>
<path d="M233.388 325.244H36.6437C16.8641 325.244 0.858948 305.927 0.858948 282.054V44.5911C0.858948 20.718 16.8641 1.40039 36.6437 1.40039H233.436C253.167 1.40039 269.125 20.718 269.125 44.4758V281.996C269.125 305.869 253.12 325.244 233.388 325.244Z" fill="#FEFEFE"/>
<path d="M233.34 325.013H36.6437C16.9597 325.013 1.00232 305.754 1.00232 281.996V44.6486C1.00232 20.8908 16.9597 1.63086 36.6437 1.63086H233.436C253.072 1.63086 268.934 20.8331 268.934 44.4756V281.996C268.982 305.754 253.024 325.013 233.34 325.013Z" fill="#FDFEFE"/>
<path d="M233.34 324.784H36.6914C17.103 324.784 1.24115 305.639 1.24115 281.997V44.6494C1.24115 21.0069 17.103 1.8623 36.6914 1.8623H233.483C253.024 1.8623 268.838 20.9493 268.838 44.534V282.054C268.79 305.639 252.929 324.784 233.34 324.784Z" fill="#FDFDFD"/>
<path d="M233.34 324.611H36.6915C17.1986 324.611 1.38452 305.524 1.38452 281.996V44.6493C1.38452 21.1221 17.1986 2.03516 36.6915 2.03516H233.483C252.881 2.03516 268.647 21.0645 268.647 44.4763V281.996C268.647 305.524 252.833 324.611 233.34 324.611Z" fill="#FDFDFD"/>
<path d="M233.292 324.38H36.6914C17.2941 324.38 1.52783 305.408 1.52783 281.939V44.6491C1.52783 21.2373 17.2463 2.20801 36.6914 2.20801H233.483C252.785 2.20801 268.456 21.1219 268.456 44.4184V281.939C268.456 305.408 252.737 324.38 233.292 324.38Z" fill="#FCFCFC"/>
<path d="M233.292 324.207H36.7392C17.3897 324.207 1.71893 305.293 1.71893 281.938V44.7066C1.71893 21.3524 17.3897 2.43848 36.7392 2.43848H233.531C252.737 2.43848 268.313 21.2371 268.313 44.4182V281.938C268.313 305.293 252.642 324.207 233.292 324.207Z" fill="#FCFCFC"/>
<path d="M233.292 323.977H36.7392C17.4852 323.977 1.91003 305.12 1.91003 281.939V44.7073C1.91003 21.4685 17.533 2.66992 36.7392 2.66992H233.483C252.594 2.66992 268.122 21.3532 268.122 44.4767V281.939C268.122 305.178 252.546 323.977 233.292 323.977Z" fill="#FBFCFC"/>
<path d="M233.245 323.804H36.7392C17.5808 323.804 2.05334 305.063 2.05334 281.939V44.7072C2.05334 21.5837 17.5808 2.84277 36.7392 2.84277H233.531C252.546 2.84277 267.978 21.4684 267.978 44.4189V281.881C267.978 305.063 252.451 323.804 233.245 323.804Z" fill="#FBFBFB"/>
<path d="M233.245 323.573H36.787C17.7241 323.573 2.24445 304.889 2.24445 281.881V44.7647C2.24445 21.7565 17.7241 3.07324 36.787 3.07324H233.531C252.451 3.07324 267.787 21.5835 267.787 44.4187V281.881C267.787 304.947 252.307 323.573 233.245 323.573Z" fill="#FAFBFB"/>
<path d="M233.245 323.4H36.787C17.8197 323.4 2.38782 304.832 2.38782 281.881V44.7646C2.38782 21.8717 17.7719 3.24609 36.787 3.24609H233.531C252.355 3.24609 267.596 21.6411 267.596 44.3609V281.823C267.644 304.774 252.212 323.4 233.245 323.4Z" fill="#FAFBFB"/>
<path d="M233.245 323.169H36.787C17.8674 323.169 2.57892 304.658 2.57892 281.881V44.7644C2.57892 21.9292 17.9152 3.47656 36.787 3.47656H233.531C252.26 3.47656 267.453 21.8139 267.453 44.4184V281.881C267.453 304.658 252.116 323.169 233.245 323.169Z" fill="#FAFAFA"/>
<path d="M233.197 322.995H36.787C17.963 322.995 2.72223 304.601 2.72223 281.881V44.8218C2.72223 22.102 17.963 3.70703 36.787 3.70703H233.531C252.164 3.70703 267.262 21.929 267.262 44.4182V281.881C267.262 304.543 252.021 322.995 233.197 322.995Z" fill="#F9FAFA"/>
<path d="M233.197 322.765H36.8348C18.1064 322.765 2.91339 304.427 2.91339 281.823V44.8217C2.91339 22.2172 18.1064 3.87988 36.8348 3.87988H233.579C252.116 3.87988 267.118 21.9865 267.118 44.3604V281.823C267.118 304.427 251.925 322.765 233.197 322.765Z" fill="#F9FAFA"/>
<path d="M233.197 322.593H36.8348C18.2019 322.593 3.0567 304.371 3.0567 281.824V44.8225C3.0567 22.3334 18.1541 4.05371 36.8348 4.05371H233.579C252.021 4.05371 266.975 22.1027 266.975 44.3612V281.824C266.927 304.313 251.83 322.593 233.197 322.593Z" fill="#17B397" fill-opacity="0.29"/>
<path d="M233.149 322.362H36.8348C18.2497 322.362 3.20001 304.197 3.20001 281.766V44.88C3.20001 22.4485 18.2497 4.28418 36.8348 4.28418H233.579C251.925 4.28418 266.784 22.2178 266.784 44.361V281.824C266.784 304.197 251.734 322.362 233.149 322.362Z" fill="#17B397" fill-opacity="0.29"/>
<path d="M233.149 322.131H36.8826C18.393 322.131 3.4389 304.024 3.4389 281.766V44.8798C3.4389 22.5636 18.4408 4.51465 36.8826 4.51465H233.627C251.877 4.51465 266.64 22.333 266.64 44.3608V281.823C266.593 304.082 251.639 322.131 233.149 322.131Z" fill="#17B397" fill-opacity="0.29"/>
<path d="M233.149 321.958H36.8825C18.4885 321.958 3.58221 303.966 3.58221 281.765V44.8797C3.58221 22.6788 18.4885 4.6875 36.8825 4.6875H233.627C251.782 4.6875 266.449 22.4482 266.449 44.303V281.765C266.449 303.966 251.543 321.958 233.149 321.958Z" fill="#F7F8F8"/>
<path d="M233.101 321.727H36.8825C18.5841 321.727 3.72552 303.793 3.72552 281.708V44.8795C3.72552 22.794 18.5841 4.86035 36.8825 4.86035H233.579C251.591 4.86035 266.258 22.5057 266.258 44.3029V281.708C266.258 303.851 251.447 321.727 233.101 321.727Z" fill="#F7F8F8"/>
<path d="M233.101 321.554H36.9304C18.7274 321.554 3.91669 303.735 3.91669 281.708V44.937C3.91669 22.9668 18.6797 5.09082 36.9304 5.09082H233.627C251.543 5.09082 266.115 22.6208 266.115 44.3027V281.708C266.115 303.735 251.352 321.554 233.101 321.554Z" fill="#17B397" fill-opacity="0.29"/>
<path d="M233.101 321.324H36.9303C18.7752 321.324 4.10779 303.563 4.10779 281.708V44.9378C4.10779 23.0253 18.823 5.32227 36.9303 5.32227H233.627C251.448 5.32227 265.924 22.7946 265.924 44.3035V281.708C265.924 303.621 251.209 321.324 233.101 321.324Z" fill="#17B397" fill-opacity="0.29"/>
<path d="M233.101 321.151H36.9303C18.8708 321.151 4.2511 303.505 4.2511 281.708V44.9377C4.2511 23.1405 18.8708 5.49512 36.9303 5.49512H233.627C251.352 5.49512 265.733 22.8521 265.733 44.2457V281.651C265.78 303.505 251.113 321.151 233.101 321.151Z" fill="#17B397" fill-opacity="0.29"/>
<path d="M233.053 320.92H36.9303C18.9663 320.92 4.39441 303.332 4.39441 281.65V44.9951C4.39441 23.3133 18.9663 5.72559 36.9303 5.72559H233.627C251.256 5.72559 265.589 22.9673 265.589 44.3032V281.65C265.589 303.332 251.017 320.92 233.053 320.92Z" fill="#F5F6F6"/>
<path d="M233.053 320.747H36.9781C19.1096 320.747 4.58551 303.274 4.58551 281.65V44.995C4.58551 23.4284 19.0618 5.89844 36.9781 5.89844H233.675C251.209 5.89844 265.446 23.0825 265.446 44.2453V281.65C265.446 303.217 250.922 320.747 233.053 320.747Z" fill="#F5F6F6"/>
<path d="M233.054 320.516H36.9781C19.2052 320.516 4.77667 303.101 4.77667 281.65V44.9948C4.77667 23.5436 19.2052 6.12891 36.9781 6.12891H233.675C251.113 6.12891 265.255 23.1976 265.255 44.2451V281.65C265.255 303.101 250.826 320.516 233.054 320.516Z" fill="#F4F6F6"/>
<path d="M233.006 320.343H36.9781C19.253 320.343 4.91998 302.986 4.91998 281.65V45.0523C4.91998 23.6588 19.253 6.35938 36.9781 6.35938H233.675C251.017 6.35938 265.064 23.3128 265.064 44.245V281.65C265.112 302.986 250.731 320.343 233.006 320.343Z" fill="#F4F5F5"/>
<path d="M233.006 320.113H37.0259C19.3963 320.113 5.11108 302.871 5.11108 281.593V45.0531C5.11108 23.7749 19.3963 6.5332 37.0259 6.5332H233.722C250.97 6.5332 264.968 23.4289 264.968 44.2458V281.651C264.92 302.871 250.635 320.113 233.006 320.113Z" fill="#F4F5F5"/>
<path d="M233.006 319.94H37.0259C19.4918 319.94 5.25439 302.756 5.25439 281.593V45.053C5.25439 23.8901 19.4918 6.70605 37.0259 6.70605H233.722C250.874 6.70605 264.777 23.4864 264.777 44.188V281.593C264.729 302.756 250.54 319.94 233.006 319.94Z" fill="#F3F5F5"/>
<path d="M232.958 319.709H37.0259C19.5874 319.709 5.4455 302.64 5.4455 281.593V45.0528C5.4455 24.0052 19.5874 6.93652 37.0259 6.93652H233.722C250.779 6.93652 264.586 23.6016 264.586 44.1878V281.593C264.586 302.64 250.444 319.709 232.958 319.709Z" fill="#F3F4F4"/>
<path d="M232.958 319.536H37.0736C19.6829 319.536 5.6366 302.525 5.6366 281.592V45.1102C5.6366 24.1204 19.7307 7.16699 37.0736 7.16699H233.77C250.731 7.16699 264.443 23.7744 264.443 44.1876V281.592C264.395 302.525 250.349 319.536 232.958 319.536Z" fill="#F2F4F4"/>
<path d="M232.958 319.305H37.0737C19.7785 319.305 5.77997 302.409 5.77997 281.535V45.1101C5.77997 24.2355 19.7785 7.33984 37.0737 7.33984H233.722C250.588 7.33984 264.252 23.8319 264.252 44.1875V281.535C264.252 302.409 250.253 319.305 232.958 319.305Z" fill="#F2F3F3"/>
<path d="M232.958 319.074H37.0737C19.8741 319.074 5.92328 302.236 5.92328 281.477V45.11C5.92328 24.3507 19.8741 7.5127 37.0737 7.5127H233.722C250.492 7.5127 264.061 23.8894 264.061 44.1297V281.477C264.061 302.294 250.157 319.074 232.958 319.074Z" fill="#F1F3F3"/>
<path d="M232.91 318.902H37.1214C20.0174 318.902 6.11438 302.179 6.11438 281.478V45.1684C6.11438 24.4669 19.9696 7.74414 37.1214 7.74414H233.77C250.444 7.74414 263.917 24.0632 263.917 44.1304V281.478C263.917 302.179 250.014 318.902 232.91 318.902Z" fill="#F1F3F3"/>
<path d="M232.91 318.671H37.1214C20.1129 318.671 6.30548 302.006 6.30548 281.477V45.1682C6.30548 24.6397 20.1129 7.97461 37.1214 7.97461H233.77C250.301 7.97461 263.726 24.1783 263.726 44.1302V281.477C263.726 302.006 249.919 318.671 232.91 318.671Z" fill="#F1F2F2"/>
<path d="M232.91 318.498H37.1214C20.1607 318.498 6.44879 301.948 6.44879 281.477V45.1681C6.44879 24.6972 20.1607 8.14746 37.1214 8.14746H233.77C250.205 8.14746 263.583 24.2358 263.583 44.1301V281.477C263.583 301.89 249.823 318.498 232.91 318.498Z" fill="#F0F2F2"/>
<path d="M232.862 318.267H37.1214C20.2563 318.267 6.59216 301.775 6.59216 281.419V45.2256C6.59216 24.87 20.2563 8.37793 37.1214 8.37793H233.77C250.11 8.37793 263.392 24.351 263.392 44.1299V281.477C263.392 301.775 249.728 318.267 232.862 318.267Z" fill="#F0F2F2"/>
<path d="M232.862 318.094H37.1692C20.3996 318.094 6.78326 301.66 6.78326 281.419V45.2254C6.78326 24.9852 20.3996 8.55078 37.1692 8.55078H233.818C250.062 8.55078 263.248 24.4662 263.248 44.0721V281.419C263.248 301.66 249.632 318.094 232.862 318.094Z" fill="#17B397"/>
<path d="M232.862 317.863H37.1692C20.4952 317.863 6.97437 301.544 6.97437 281.419V45.2252C6.97437 25.1003 20.4952 8.78125 37.1692 8.78125H233.818C249.966 8.78125 263.057 24.5813 263.057 44.0719V281.419C263.057 301.544 249.536 317.863 232.862 317.863Z" fill="#17B397"/>
<path d="M232.815 317.691H37.1692C20.5907 317.691 7.11768 301.43 7.11768 281.42V45.2261C7.11768 25.2165 20.5907 8.95508 37.1692 8.95508H233.818C249.871 8.95508 262.914 24.6398 262.914 44.0728V281.42C262.914 301.43 249.441 317.691 232.815 317.691Z" fill="#17B397"/>
<path d="M232.815 317.46H37.217C20.6862 317.46 7.30878 301.314 7.30878 281.362V45.2835C7.30878 25.3316 20.6862 9.18555 37.217 9.18555H233.866C249.823 9.18555 262.771 24.8126 262.771 44.0726V281.42C262.723 301.314 249.345 317.46 232.815 317.46Z" fill="#EEF0F0"/>
<path d="M232.815 317.287H37.217C20.7818 317.287 7.45215 301.199 7.45215 281.362V45.2834C7.45215 25.4468 20.7818 9.3584 37.217 9.3584H233.866C249.728 9.3584 262.579 24.8702 262.579 44.0148V281.362C262.579 301.199 249.25 317.287 232.815 317.287Z" fill="#EEF0F0"/>
<path d="M232.815 317.056H37.217C20.8774 317.056 7.64325 301.083 7.64325 281.362V45.2832C7.64325 25.5619 20.8774 9.58887 37.217 9.58887H233.818C249.584 9.58887 262.341 24.9853 262.341 44.0146V281.304C262.388 301.083 249.154 317.056 232.815 317.056Z" fill="#17B397" fill-opacity="0.29"/>
<path d="M232.767 316.884H37.2648C21.0207 316.884 7.83435 300.969 7.83435 281.363V45.3417C7.83435 25.7357 21.0207 9.82031 37.2648 9.82031H233.866C249.536 9.82031 262.245 25.1591 262.245 44.0731V281.363C262.197 300.969 249.059 316.884 232.767 316.884Z" fill="#17B397" fill-opacity="0.29"/>
<path d="M232.767 316.652H37.2647C21.0685 316.652 7.97766 300.852 7.97766 281.304V45.3405C7.97766 25.7923 21.0685 9.99219 37.2647 9.99219H233.866C249.441 9.99219 262.054 25.2156 262.054 44.0143V281.304C262.054 300.852 248.915 316.652 232.767 316.652Z" fill="#17B397" fill-opacity="0.29"/>
<path d="M232.767 316.48H37.2647C21.164 316.48 8.12097 300.738 8.12097 281.305V45.3414C8.12097 25.9084 21.164 10.166 37.2647 10.166H233.866C249.345 10.166 261.863 25.2741 261.863 43.9574V281.247C261.863 300.738 248.82 316.48 232.767 316.48Z" fill="#ECEEEE"/>
<path d="M232.719 316.249H37.2648C21.2596 316.249 8.26434 300.564 8.26434 281.247V45.3989C8.26434 26.0812 21.2596 10.3965 37.2648 10.3965H233.866C249.25 10.3965 261.672 25.4469 261.672 43.9572V281.247C261.719 300.564 248.724 316.249 232.719 316.249Z" fill="#ECEEEE"/>
<path d="M232.719 316.018H37.3126C21.4029 316.018 8.50323 300.449 8.50323 281.247V45.3987C8.50323 26.1964 21.4029 10.627 37.3126 10.627H233.913C249.202 10.627 261.576 25.5621 261.576 44.0147V281.304C261.528 300.449 248.629 316.018 232.719 316.018Z" fill="#EBEEEE"/>
<path d="M232.719 315.845H37.3125C21.4985 315.845 8.64655 300.333 8.64655 281.246V45.3985C8.64655 26.3116 21.4985 10.7998 37.3125 10.7998H233.913C249.059 10.7998 261.385 25.6196 261.385 43.9569V281.246C261.385 300.333 248.533 315.845 232.719 315.845Z" fill="#EBEDED"/>
<path d="M232.671 315.615H37.3125C21.5462 315.615 8.78986 300.219 8.78986 281.19V45.3994C8.78986 26.3701 21.5462 10.9736 37.3125 10.9736H233.913C248.963 10.9736 261.194 25.7358 261.194 43.9001V281.19C261.194 300.219 248.438 315.615 232.671 315.615Z" fill="#EBEDED"/>
<path d="M232.671 315.441H37.3603C21.6896 315.441 8.98102 300.102 8.98102 281.188V45.4559C8.98102 26.5419 21.6896 11.2031 37.3603 11.2031H233.961C248.915 11.2031 261.051 25.8499 261.051 43.8989V281.188C261.051 300.102 248.342 315.441 232.671 315.441Z" fill="#EAEDED"/>
<path d="M232.671 315.211H37.3603C21.7852 315.211 9.17212 299.988 9.17212 281.189V45.4566C9.17212 26.658 21.7852 11.4346 37.3603 11.4346H233.961C248.82 11.4346 260.907 25.966 260.907 43.9573V281.247C260.859 299.988 248.246 315.211 232.671 315.211Z" fill="#EAECEC"/>
<path d="M232.671 315.038H37.3603C21.8807 315.038 9.31543 299.872 9.31543 281.189V45.4565C9.31543 26.7732 21.8807 11.6074 37.3603 11.6074H233.961C248.724 11.6074 260.716 26.0812 260.716 43.8996V281.189C260.716 299.872 248.151 315.038 232.671 315.038Z" fill="#E9ECEC"/>
<path d="M232.623 314.807H37.4081C22.024 314.807 9.50653 299.757 9.50653 281.131V45.514C9.50653 26.946 21.9762 11.8379 37.4081 11.8379H233.961C248.629 11.8379 260.525 26.1964 260.525 43.8994V281.131C260.525 299.757 248.055 314.807 232.623 314.807Z" fill="#E9ECEC"/>
<path d="M232.623 314.634H37.4081C22.0718 314.634 9.64984 299.641 9.64984 281.131V45.5138C9.64984 27.0035 22.0718 12.0107 37.4081 12.0107H233.961C248.533 12.0107 260.334 26.2539 260.334 43.8415V281.073C260.382 299.641 247.96 314.634 232.623 314.634Z" fill="#E8EBEB"/>
<path d="M232.623 314.404H37.4081C22.1673 314.404 9.84094 299.469 9.84094 281.132V45.5146C9.84094 27.1196 22.2151 12.2422 37.4081 12.2422H233.961C248.438 12.2422 260.191 26.4277 260.191 43.9V281.132C260.191 299.527 247.864 314.404 232.623 314.404Z" fill="#E8EBEB"/>
<path d="M232.576 314.231H37.4081C22.2629 314.231 9.98431 299.411 9.98431 281.132V45.5721C9.98431 27.2924 22.2629 12.4727 37.4081 12.4727H234.009C248.39 12.4727 260.047 26.5428 260.047 43.8998V281.074C260.047 299.411 247.721 314.231 232.576 314.231Z" fill="#E8EAEA"/>
<path d="M232.576 314H37.4559C22.4062 314 10.1754 299.238 10.1754 281.074V45.5719C10.1754 27.4076 22.4062 12.6455 37.4559 12.6455H234.009C248.294 12.6455 259.856 26.6003 259.856 43.842V281.074C259.856 299.238 247.625 314 232.576 314Z" fill="#E7EAEA"/>
<path d="M232.576 313.827H37.4559C22.454 313.827 10.3187 299.18 10.3187 281.074V45.5718C10.3187 27.4651 22.454 12.8184 37.4559 12.8184H234.009C248.199 12.8184 259.665 26.7155 259.665 43.7842V281.074C259.665 299.123 247.53 313.827 232.576 313.827Z" fill="#E7EAEA"/>
<path d="M232.528 313.596H37.4558C22.5495 313.596 10.462 299.007 10.462 281.016V45.6293C10.462 27.638 22.5495 13.0488 37.4558 13.0488H234.009C248.103 13.0488 259.522 26.8306 259.522 43.8417V281.074C259.522 299.007 247.434 313.596 232.528 313.596Z" fill="#17B397"/>
<path d="M232.528 313.423H37.5036C22.6929 313.423 10.7009 298.949 10.7009 281.073V45.6291C10.7009 27.7531 22.6929 13.2793 37.5036 13.2793H234.009C248.008 13.2793 259.331 26.9458 259.331 43.8415V281.073C259.331 298.892 247.339 313.423 232.528 313.423Z" fill="#17B397"/>
</svg>
